<?xml version="1.0" standalone="no"?>
<!DOCTYPE svg PUBLIC "-//W3C//DTD SVG 20010904//EN"
 "http://www.w3.org/TR/2001/REC-SVG-20010904/DTD/svg10.dtd">
<svg version="1.0" xmlns="http://www.w3.org/2000/svg"
 width="512.000000pt" height="512.000000pt" viewBox="0 0 512.000000 512.000000"
 preserveAspectRatio="xMidYMid meet">
<metadata>
Created by potrace 1.14, written by Peter Selinger 2001-2017
</metadata>
<g transform="translate(0.000000,512.000000) scale(0.100000,-0.100000)"
fill="#000000" stroke="none">
<path d="M1534 5019 c-51 -10 -103 -48 -125 -92 -19 -37 -31 -95 -44 -215 -3
-26 -8 -63 -11 -82 -2 -19 -7 -48 -9 -65 -25 -193 -46 -358 -50 -395 -3 -25
-8 -58 -10 -75 -22 -146 -14 -199 37 -254 79 -84 207 -81 284 6 31 35 38 53
49 138 3 22 7 54 10 70 3 17 8 55 11 85 4 30 9 75 13 100 l6 45 35 -50 c36
-52 220 -285 255 -321 11 -12 63 -68 115 -125 105 -115 342 -341 435 -416 33
-26 66 -54 74 -61 7 -7 64 -51 125 -96 301 -225 619 -411 921 -541 61 -25 124
-53 140 -60 167 -73 521 -175 745 -214 204 -36 281 -45 386 -45 65 0 75 3 113
33 51 41 71 78 78 145 10 107 -72 191 -197 201 -125 11 -215 23 -335 46 -798
154 -1571 596 -2191 1252 -109 115 -334 385 -334 400 0 7 65 -15 198 -67 101
-40 151 -48 197 -33 110 36 164 157 116 263 -24 54 -67 84 -171 123 -47 18
-94 36 -105 41 -11 5 -81 32 -155 60 -74 28 -162 62 -195 75 -319 124 -356
136 -411 124z"/>
<path d="M2 2251 l3 -1966 24 -45 c31 -58 71 -97 129 -123 l47 -21 2418 -1
2417 0 0 55 c1 81 1 336 0 406 l0 61 -2242 1 c-1234 0 -2250 1 -2259 1 -15 1
-16 153 -17 1773 0 975 -1 1785 -1 1799 l-1 26 -260 0 -260 0 2 -1966z"/>
<path d="M1057 2800 c-9 -4 -12 -210 -12 -908 l0 -902 25 -1 c14 0 147 -1 295
-1 l270 -1 1 906 c1 671 -1 907 -10 908 -38 4 -559 3 -569 -1z"/>
<path d="M2109 2287 c-4 -6 -3 -1297 1 -1298 7 -1 539 -1 565 0 21 1 21 4 21
650 l-1 648 -292 1 c-161 0 -294 -1 -294 -1z"/>
<path d="M3163 1470 c0 -432 2 -480 16 -481 112 -6 564 -2 569 6 3 5 6 222 7
482 l0 473 -296 0 -296 0 0 -480z"/>
<path d="M4224 1451 c-2 -2 -4 -107 -4 -233 0 -210 1 -228 18 -229 73 -4 564
-1 568 4 8 8 7 447 -1 455 -7 7 -574 10 -581 3z"/>
</g>
</svg>
